<svg version="1.1" id="Layer_1" xmlns="http://www.w3.org/2000/svg" xmlns:xlink="http://www.w3.org/1999/xlink" x="0px" y="0px"
	 width="100%" viewBox="0 0 592 480" enable-background="new 0 0 592 480" xml:space="preserve">
<path fill="#000000" opacity="1.000000" stroke="none" 
	d="
M261.437775,22.187124 
	C280.737854,15.602763 297.193329,20.042252 311.340942,33.703133 
	C324.693909,46.596714 334.029755,62.389977 342.888794,78.474525 
	C352.141449,95.273712 359.928467,112.779198 367.395447,130.419250 
	C369.237335,134.770462 372.067169,137.097672 376.640991,137.585144 
	C392.331512,139.257477 408.087524,140.480789 423.694244,142.735870 
	C449.683929,146.491226 475.836853,149.955307 499.675262,162.177612 
	C514.277039,169.664154 521.681396,181.714645 521.086731,198.155243 
	C520.748596,207.505310 516.780212,215.872559 512.305908,223.934479 
	C504.060303,238.791855 492.780273,251.297348 481.149811,263.466125 
	C467.569489,277.675049 453.742096,291.649414 439.916412,305.621155 
	C436.453278,309.120880 435.972656,312.767059 437.159546,317.443726 
	C444.078979,344.707886 450.707520,372.062836 453.657440,400.100372 
	C455.019196,413.042969 455.042572,426.061035 450.514587,438.609009 
	C444.657867,454.839142 429.907074,465.122833 412.677399,465.405304 
	C396.021454,465.678345 381.045074,459.627594 366.202789,453.291138 
	C340.710846,442.408142 316.831818,428.390320 293.059631,414.276276 
	C286.231476,410.222290 281.032104,410.330017 274.419037,414.597778 
	C253.849457,427.872345 233.871765,442.110199 212.278793,453.759277 
	C199.651596,460.571442 186.764862,466.788391 172.575012,469.701233 
	C151.459763,474.035583 132.995758,462.353821 127.654915,441.531586 
	C125.391495,432.707275 125.471710,423.778992 125.462051,414.781158 
	C125.433929,388.581757 128.279495,362.661713 132.596237,336.873474 
	C133.417496,331.967255 130.912781,328.858795 127.301712,326.435699 
	C118.588829,320.589111 109.762093,314.912201 100.980042,309.168732 
	C86.596809,299.762085 72.519432,289.956787 60.565094,277.464081 
	C47.068558,263.359741 41.362820,240.573608 64.016373,223.998917 
	C79.677399,212.540375 97.775650,206.904312 116.087479,201.766739 
	C125.866714,199.023056 135.893951,197.400711 145.944519,195.973923 
	C150.862671,195.275742 152.131317,196.575760 151.077881,201.390076 
	C150.069077,206.000412 146.789474,208.260605 142.525772,209.547867 
	C128.829361,213.682968 114.896111,217.077896 101.620499,222.535492 
	C94.223137,225.576553 86.867874,228.698502 80.067551,232.985428 
	C62.626839,243.980057 61.878002,257.257996 77.770096,270.606293 
	C89.916718,280.808655 102.941185,289.769104 116.059433,298.631714 
	C124.201591,304.132507 132.061935,310.051666 140.225113,315.519775 
	C149.346390,321.629700 151.423126,329.973389 149.653275,340.335785 
	C144.736786,369.121552 142.111603,398.110657 143.107040,427.357819 
	C143.198166,430.035156 143.513000,432.651154 144.196182,435.253113 
	C148.030716,449.857574 158.354477,455.918304 172.999115,451.911346 
	C189.280701,447.456482 203.571747,438.812256 217.691330,429.976868 
	C233.930161,419.815430 250.112885,409.537628 265.934814,398.745697 
	C277.233063,391.039337 287.731293,390.328766 299.779022,397.478302 
	C322.404175,410.904846 345.379791,423.777313 369.123505,435.181152 
	C379.954224,440.382996 391.119019,444.627533 402.969055,447.049194 
	C421.128845,450.760315 435.150848,439.825256 435.685211,421.177673 
	C436.295380,399.885223 432.725220,379.055908 428.388550,358.344238 
	C425.627258,345.156494 422.540802,332.035095 419.470734,318.914246 
	C417.231873,309.345642 419.642181,301.588593 426.546051,294.346832 
	C445.504425,274.460602 465.812500,255.831772 483.007111,234.287460 
	C491.241058,223.970612 499.244995,213.528244 502.208862,200.242004 
	C504.245331,191.113129 501.207581,183.400024 493.390961,178.157196 
	C484.484375,172.183319 474.186462,169.852737 464.009735,167.389893 
	C438.401642,161.192596 412.281708,158.450928 386.090576,156.234528 
	C380.795807,155.786453 375.533203,154.964584 370.252502,154.342346 
	C361.676605,153.331787 356.119965,148.789108 352.705627,140.768661 
	C346.966705,127.287537 340.930939,113.919815 334.585907,100.712944 
	C326.569366,84.026810 317.747559,67.762428 306.023315,53.299747 
	C303.517487,50.208637 300.684601,47.322330 297.689728,44.698563 
	C285.357056,33.894016 269.948639,34.238495 258.059784,45.459396 
	C249.722137,53.328590 243.537140,62.811081 238.076950,72.767899 
	C223.002640,100.256432 211.444290,129.397827 198.320587,157.803528 
	C194.833939,165.350220 191.397003,172.814072 180.796371,172.545868 
	C179.970673,164.920380 181.669388,157.508896 184.322113,150.732727 
	C197.921860,115.993408 211.538254,81.198952 231.986710,49.703568 
	C239.392029,38.297661 248.257843,28.140726 261.437775,22.187124 
z"/>
<path fill="#000000" opacity="1.000000" stroke="none" 
	d="
M149.882721,149.757629 
	C146.689880,155.260422 143.866974,160.559845 140.604324,165.573059 
	C135.173553,173.917740 127.052589,176.912918 117.635765,174.912140 
	C105.247719,172.280090 93.238701,168.107620 82.094246,162.041077 
	C69.883728,155.394257 61.312000,145.525848 58.266193,131.570618 
	C55.908913,120.770058 60.759491,111.686729 70.655144,107.052467 
	C80.670471,102.362175 90.206970,102.480286 99.572632,108.563713 
	C101.922882,110.090302 104.405121,111.413696 107.124710,113.004829 
	C109.860527,106.844154 111.807480,100.620232 115.835449,95.476425 
	C122.086647,87.493546 129.791718,82.676910 140.388779,84.503067 
	C145.735352,85.424423 149.881409,88.395439 153.042679,92.729553 
	C160.087296,102.387726 161.629639,113.040398 158.761688,124.511253 
	C156.617752,133.086365 154.147995,141.536728 149.882721,149.757629 
M82.234505,143.259186 
	C91.994476,151.291092 103.935600,154.633026 115.544426,158.640091 
	C122.881691,161.172729 127.157913,159.566498 130.904205,152.598145 
	C136.026382,143.070572 140.571869,133.270294 143.205917,122.689056 
	C144.554947,117.269897 145.074738,111.936935 143.246765,106.497627 
	C140.710159,98.949753 134.611923,97.169762 128.554016,102.305115 
	C126.989174,103.631645 126.052452,105.370415 125.014137,107.081520 
	C121.042183,113.627052 119.462967,120.916374 118.203423,128.324768 
	C117.764565,130.905991 116.666573,133.214600 113.992050,134.037918 
	C111.048645,134.944031 108.892151,133.355637 107.047653,131.218277 
	C105.961853,129.960098 104.916626,128.638809 103.675850,127.547462 
	C99.161682,123.576988 94.543205,119.694473 88.249855,118.958557 
	C83.417564,118.393486 78.703903,119.101669 75.648346,123.195747 
	C72.787842,127.028465 74.466843,131.289871 76.322487,135.018112 
	C77.709282,137.804367 79.896858,140.192047 82.234505,143.259186 
z"/>
<path fill="#000000" opacity="1.000000" stroke="none" 
	d="
M278.878601,296.314514 
	C265.905060,296.313873 256.508087,290.572205 249.486404,280.522827 
	C247.737045,278.019165 246.562866,275.242371 246.889359,272.119568 
	C247.243042,268.736511 248.755234,265.987366 252.276932,265.086914 
	C255.848495,264.173706 258.506897,265.799225 260.104340,268.920288 
	C267.966248,284.280914 287.608612,284.230072 297.060516,268.475708 
	C298.282928,266.438202 299.457916,264.364227 301.975128,263.854553 
	C304.673462,263.308228 307.300079,263.480286 309.358978,265.700287 
	C311.523834,268.034546 311.767609,270.765533 310.782471,273.615173 
	C306.617554,285.662933 296.852234,291.300385 285.696167,295.213928 
	C283.694153,295.916229 281.461700,295.961517 278.878601,296.314514 
z"/>
<path fill="#000000" opacity="1.000000" stroke="none" 
	d="
M218.986542,221.731262 
	C232.141357,227.291672 236.877991,244.066376 228.853165,255.402313 
	C223.033813,263.622772 209.669678,263.536438 203.387558,255.237839 
	C197.726242,247.759293 197.198975,235.680573 202.476044,227.972443 
	C206.343658,222.323151 211.934067,220.459167 218.986542,221.731262 
z"/>
<path fill="#000000" opacity="1.000000" stroke="none" 
	d="
M325.369507,227.606613 
	C332.829590,216.622696 346.054169,217.011185 352.212341,228.242371 
	C356.380157,235.843567 356.659393,243.789902 352.781311,251.666290 
	C350.019318,257.275787 345.154694,260.073181 339.139282,260.155914 
	C332.850281,260.242432 327.887054,257.192261 325.127899,251.442856 
	C321.399811,243.674377 321.352753,235.763184 325.369507,227.606613 
z"/>
<path fill="#000000" opacity="1.000000" stroke="none" 
	d="
M64.235161,342.839844 
	C69.802383,341.363464 74.602058,341.854919 78.261635,346.192780 
	C81.599472,350.149261 81.830521,354.979004 79.170258,359.716034 
	C76.440018,364.577698 72.200089,366.659271 66.698074,366.314819 
	C61.326283,365.978516 57.174656,362.200226 56.087990,356.665741 
	C55.059086,351.425507 58.094681,346.070984 64.235161,342.839844 
z"/>
<path fill="#000000" opacity="1.000000" stroke="none" 
	d="
M488.021973,330.008545 
	C494.055145,325.950745 498.970490,325.924347 503.382935,329.656372 
	C507.166809,332.856750 508.268463,337.928192 506.123627,342.273163 
	C503.273804,348.046326 495.524567,350.304443 489.819031,347.024384 
	C483.913544,343.629364 483.052734,336.693146 488.021973,330.008545 
z"/>
<path fill="#000000" opacity="1.000000" stroke="none" 
	d="
M403.517517,74.104652 
	C408.655090,71.742096 413.279175,71.880547 417.287842,75.471046 
	C420.281891,78.152771 421.790283,81.604507 420.690521,85.738983 
	C419.443420,90.427315 415.614441,93.696022 410.583588,93.882362 
	C405.774902,94.060471 401.857849,92.184120 399.722260,87.559586 
	C397.505188,82.758621 398.629791,78.522125 403.517517,74.104652 
z"/>
<path fill="#000000" opacity="1.000000" stroke="none" 
	d="
M492.968079,117.738792 
	C490.575836,121.929756 487.146088,123.639198 482.837616,123.119225 
	C477.341919,122.455971 473.828644,117.377510 474.847534,111.997040 
	C475.751923,107.221214 480.639160,104.252129 485.841675,105.317894 
	C492.177460,106.615822 494.729614,110.844109 492.968079,117.738792 
z"/>
</svg>